<svg xmlns="http://www.w3.org/2000/svg" viewBox="0 0 256 256">
  <defs>
    <radialGradient id="bg" cx="50%" cy="44%" r="58%">
      <stop offset="0%" stop-color="#3a0000" />
      <stop offset="55%" stop-color="#250000" />
      <stop offset="100%" stop-color="#100000" />
    </radialGradient>
    <filter id="glow" x="-20%" y="-20%" width="140%" height="140%">
      <feGaussianBlur stdDeviation="6" result="blur" />
      <feMerge>
        <feMergeNode in="blur" />
        <feMergeNode in="SourceGraphic" />
      </feMerge>
    </filter>
  </defs>

  <circle cx="128" cy="128" r="112" fill="url(#bg)" />

  <g filter="url(#glow)">
    <path
      d="M128 36c-40 0-73 31-73 72c0 33 17 49 33 62v28c0 12 11 22 24 22h32c13 0 24-10 24-22v-28c16-13 33-29 33-62c0-41-33-72-73-72Z"
      fill="#f5f3f1"
      stroke="#2d1212"
      stroke-width="4"
    />

    <path d="M128 56v144" stroke="#2d1212" stroke-width="4" />
    <path d="M70 128h116" stroke="#2d1212" stroke-width="4" />

    <circle cx="98" cy="112" r="21" fill="#ff4a18" />
    <circle cx="98" cy="112" r="9" fill="#ff8f33" />
    <circle cx="158" cy="112" r="21" fill="#130606" />

    <path d="M128 130l-12 20h24Z" fill="#120606" />
    <path d="M95 170c12 12 54 12 66 0" stroke="#120606" stroke-width="5" fill="none" />

    <rect x="98" y="180" width="8" height="22" fill="#120606" />
    <rect x="114" y="178" width="8" height="24" fill="#120606" />
    <rect x="130" y="178" width="8" height="24" fill="#120606" />
    <rect x="146" y="180" width="8" height="22" fill="#120606" />

    <rect x="70" y="146" width="8" height="8" fill="#ff3a1a" />
    <rect x="182" y="146" width="8" height="8" fill="#ff3a1a" />
    <rect x="82" y="78" width="8" height="8" fill="#ff3a1a" />
  </g>
</svg>
